<?xml version="1.0" standalone="no"?>
<!DOCTYPE svg PUBLIC "-//W3C//DTD SVG 20010904//EN"
 "http://www.w3.org/TR/2001/REC-SVG-20010904/DTD/svg10.dtd">
<svg version="1.0" xmlns="http://www.w3.org/2000/svg"
 width="48.000000pt" height="30.000000pt" viewBox="0 0 48.000000 30.000000"
 preserveAspectRatio="xMidYMid meet">

<g transform="translate(0.000000,30.000000) scale(0.100000,-0.100000)"
fill="#000000" stroke="none">
<path d="M29 271 c-32 -33 -34 -46 -18 -123 13 -61 33 -88 64 -88 19 0 23 7
29 43 13 93 23 137 35 151 10 12 7 17 -18 30 -42 22 -58 20 -92 -13z"/>
<path d="M364 290 c-30 -12 -38 -28 -23 -46 7 -9 17 -39 21 -67 19 -115 20
-117 37 -117 37 0 62 43 68 118 5 66 4 72 -20 96 -27 27 -47 31 -83 16z"/>
<path d="M185 271 c-32 -14 -52 -43 -59 -86 -3 -22 -9 -58 -12 -81 -4 -24 -2
-50 5 -62 22 -41 140 -55 200 -24 50 25 57 42 44 99 -7 26 -14 65 -18 86 -5
28 -14 43 -38 57 -33 20 -87 25 -122 11z m20 -98 c-31 -8 -42 -23 -17 -23 13
0 22 -6 22 -15 0 -24 -37 -18 -43 7 -8 29 -1 38 31 37 21 -1 22 -2 7 -6z m115
-8 c13 -16 0 -21 -15 -6 -6 5 -19 11 -30 14 -16 4 -14 5 6 6 15 0 32 -6 39
-14z m-5 -30 c0 -5 -10 -11 -22 -13 -15 -2 -23 -10 -23 -23 0 -26 -28 -36 -47
-16 -23 23 -8 60 23 54 13 -2 24 0 24 5 0 5 10 8 23 6 12 -2 22 -7 22 -13z
m-62 -92 c-7 -2 -19 -2 -25 0 -7 3 -2 5 12 5 14 0 19 -2 13 -5z"/>
</g>
</svg>
